<?xml version="1.0" encoding="UTF-8" standalone="no"?>
<svg
   viewBox="0 0 72 72"
   fill="none"
   stroke="currentColor"
   stroke-width="2"
   stroke-linecap="round"
   stroke-linejoin="round"
   version="1.1"
   id="svg10"
   sodipodi:docname="logo.svg"
   inkscape:version="1.4 (e7c3feb1, 2024-10-09)"
   width="72"
   height="72"
   xmlns:inkscape="http://www.inkscape.org/namespaces/inkscape"
   xmlns:sodipodi="http://sodipodi.sourceforge.net/DTD/sodipodi-0.dtd"
   xmlns="http://www.w3.org/2000/svg"
   xmlns:svg="http://www.w3.org/2000/svg">
  <defs
     id="defs10" />
  <sodipodi:namedview
     id="namedview10"
     pagecolor="#ffffff"
     bordercolor="#000000"
     borderopacity="0.25"
     inkscape:showpageshadow="2"
     inkscape:pageopacity="0.0"
     inkscape:pagecheckerboard="0"
     inkscape:deskcolor="#d1d1d1"
     inkscape:zoom="1.0833333"
     inkscape:cx="36"
     inkscape:cy="12"
     inkscape:window-width="1584"
     inkscape:window-height="663"
     inkscape:window-x="0"
     inkscape:window-y="38"
     inkscape:window-maximized="0"
     inkscape:current-layer="svg10" />
  <!-- Dog (positioned at 0-24) -->
  <g
     id="g5"
     transform="translate(0,24.027252)">
    <path
       d="m 11.25,16.25 h 1.5 L 12,17 Z"
       id="path1" />
    <path
       d="m 16,14 v 0.5"
       id="path2" />
    <path
       d="M 4.42,11.247 A 13.152,13.152 0 0 0 4,14.556 C 4,18.728 7.582,21 12,21 c 4.418,0 8,-2.272 8,-6.444 a 11.702,11.702 0 0 0 -0.493,-3.309"
       id="path3" />
    <path
       d="m 8,14 v 0.5"
       id="path4" />
    <path
       d="M 8.5,8.5 C 8.116,9.55 7.417,10.528 6.156,11 4.225,11.722 2.58,10.703 2.5,10 2.387,9.006 3.677,3.47 6.5,3 8.423,2.679 10.151,3.845 10.151,5.235 A 7.497,7.497 0 0 1 14,5.277 C 14,3.887 15.844,2.679 17.767,3 c 2.823,0.47 4.113,6.006 4,7 -0.08,0.703 -1.725,1.722 -3.656,1 C 16.85,10.528 16.256,9.55 15.872,8.5"
       id="path5" />
  </g>
  <!-- Heart (positioned at 24-48) -->
  <g
     transform="translate(24,24.000021)"
     id="g6"
     style="fill:#dc20e9;fill-opacity:1">
    <path
       d="m 19,14 c 1.49,-1.46 3,-3.21 3,-5.5 A 5.5,5.5 0 0 0 16.5,3 C 14.74,3 13.5,3.5 12,5 10.5,3.5 9.26,3 7.5,3 A 5.5,5.5 0 0 0 2,8.5 c 0,2.3 1.5,4.05 3,5.5 l 7,7 z"
       id="path6"
       style="fill:#dc20e9;fill-opacity:1" />
  </g>
  <!-- Cat (positioned at 48-72) -->
  <g
     transform="translate(48,24.102902)"
     id="g10">
    <path
       d="m 12,5 c 0.67,0 1.35,0.09 2,0.26 1.78,-2 5.03,-2.84 6.42,-2.26 1.4,0.58 -0.42,7 -0.42,7 0.57,1.07 1,2.24 1,3.44 C 21,17.9 16.97,21 12,21 7.03,21 3,18 3,13.44 3,12.19 3.5,11.04 4,10 4,10 2.11,3.58 3.5,3 4.89,2.42 8.22,3.23 10,5.23 A 9.04,9.04 0 0 1 12,5 Z"
       id="path7" />
    <path
       d="m 8,14 v 0.5"
       id="path8" />
    <path
       d="m 16,14 v 0.5"
       id="path9" />
    <path
       d="m 11.25,16.25 h 1.5 L 12,17 Z"
       id="path10" />
  </g>
</svg>
